#!OML:ASF F:\VICON\USERDATA\INSTALL\rory3\rory3.ASF
:FULLY-SPECIFIED
:DEGREES
1
root 4.69394 16.0366 -32.9835 21.7092 -3.70136 -0.333079
lowerback -17.1216 0.138949 1.38297
upperback -6.95425 -0.0820612 0.803271
thorax 2.17479 -0.0594573 0.0463414
lowerneck -11.4123 -3.7629 -1.69163
upperneck 40.4718 -6.88867 3.27671
head 16.7433 -2.7141 0.575196
rclavicle 9.14953e-015 3.57812e-015
rhumerus -42.1335 -1.1791 -79.9301
rradius 23.3233
rwrist -9.33955
rhand -3.5911 14.4038
rfingers 7.12502
rthumb 22.1466 -14.3477
lclavicle 9.14953e-015 3.57812e-015
lhumerus -45.9053 11.6921 75.7276
lradius 35.0408
lwrist -1.87769
lhand 1.8824 17.5691
lfingers 7.12502
lthumb 27.3921 45.5981
rfemur -45.9807 1.51039 29.4188
rtibia 43.7113
rfoot -50.688 -32.1943
rtoes 40.4715
lfemur -26.7497 12.2694 -26.1937
ltibia 54.0504
lfoot -14.2337 12.9282
ltoes -34.3153
2
root 4.7111 16.0416 -33.0005 21.6107 -3.32705 -0.117756
lowerback -17.7002 -0.00670771 1.16114
upperback -6.62667 -0.251078 0.792654
thorax 2.82477 -0.136061 0.128005
lowerneck -10.8767 -3.75845 -1.76473
upperneck 40.0224 -6.86985 3.40286
head 16.374 -2.71832 0.658813
rclavicle 4.81121e-015 1.19271e-015
rhumerus -41.7942 -1.10574 -79.9387
rradius 23.1397
rwrist -9.4245
rhand -3.54194 15.0234
rfingers 7.12502
rthumb 22.1938 -13.7225
lclavicle 4.81121e-015 1.19271e-015
lhumerus -45.572 11.7983 75.8003
lradius 35.1112
lwrist -2.07687
lhand 1.8847 17.5082
lfingers 7.12502
lthumb 27.3943 45.5369
rfemur -46.0207 1.58981 29.0418
rtibia 43.8501
rfoot -51.8636 -32.3994
rtoes 40.544
lfemur -26.6733 11.3404 -26.1028
ltibia 52.9768
lfoot -15.7056 13.1746
ltoes -33.2018
3
root 4.71985 16.0487 -33.0282 21.7966 -2.63918 0.240884
lowerback -16.6458 -0.360802 0.595345
upperback -6.97923 -0.610048 0.917938
thorax 1.90478 -0.308177 0.517519
lowerneck -12.0507 -3.78512 -1.81222
upperneck 40.578 -6.91695 3.33548
head 16.9755 -2.7189 0.603273
rclavicle 4.48974e-015 -1.07344e-014
rhumerus -41.8895 -0.70543 -79.8454
rradius 23.1846
rwrist -9.77704
rhand -3.32364 14.7979
rfingers 7.12502
rthumb 22.4033 -13.9229
lclavicle 4.48974e-015 -1.07344e-014
lhumerus -45.576 11.7308 76.0325
lradius 35.2462
lwrist -2.05802
lhand 1.83954 17.2174
lfingers 7.12502
lthumb 27.3511 45.2529
rfemur -46.3564 2.16797 28.3529
rtibia 43.8664
rfoot -53.6682 -32.6629
rtoes 41.3183
lfemur -27.0596 10.0247 -26.0518
ltibia 51.8793
lfoot -17.0277 13.8408
ltoes -34.5729
4
root 4.75143 16.0538 -33.0248 21.3038 -3.50998 0.0700641
lowerback -17.0203 0.107524 0.875647
upperback -6.69197 -0.0382141 0.690159
thorax 2.40145 -0.0291765 0.222529
lowerneck -10.7149 -3.83848 -1.90341
upperneck 39.9811 -7.07413 3.71578
head 16.3472 -2.78434 0.790531
rclavicle 8.47823e-015 -3.57812e-015
rhumerus -42.2197 -1.12888 -79.7522
rradius 23.387
rwrist -9.64096
rhand -3.07066 14.61
rfingers 7.12502
rthumb 22.6461 -14.0814
lclavicle 8.47823e-015 -3.57812e-015
lhumerus -45.6179 11.1308 76.0784
lradius 35.4464
lwrist -1.87232
lhand 1.54967 17.0398
lfingers 7.12502
lthumb 27.0738 45.1188
rfemur -45.8299 2.15571 28.3695
rtibia 43.8803
rfoot -52.8557 -32.5661
rtoes 40.9246
lfemur -26.3848 10.0841 -25.9905
ltibia 50.6928
lfoot -18.9102 14.7996
ltoes -35.7004
5
root 4.74733 16.0602 -33.0597 21.1015 -1.79116 0.688972
lowerback -16.7741 -0.559381 0.160116
upperback -6.54497 -0.796357 0.672839
thorax 2.43537 -0.395451 0.469213
lowerneck -10.8613 -3.89718 -1.67711
upperneck 39.9071 -7.20182 3.67444
head 16.3367 -2.80579 0.706999
rclavicle 8.69683e-017 1.09332e-014
rhumerus -42.127 -1.44516 -79.6305
rradius 23.4201
rwrist -9.44307
rhand -3.07458 14.9295
rfingers 7.12502
rthumb 22.6424 -13.7624
lclavicle 8.69683e-017 1.09332e-014
lhumerus -45.2449 10.9001 76.1849
lradius 35.5046
lwrist -1.79496
lhand 1.43064 17.2102
lfingers 7.12502
lthumb 26.96 45.3068
rfemur -45.7189 3.53417 27.172
rtibia 43.9194
rfoot -56.8262 -32.5902
rtoes 42.8758
lfemur -26.4051 8.14093 -25.6462
ltibia 49.6789
lfoot -20.3892 14.8887
ltoes -34.8267
6
root 4.75166 16.0683 -33.0787 20.5959 -0.478595 1.17473
lowerback -15.9546 -1.14684 -0.492299
upperback -6.32436 -1.47291 0.807379
thorax 2.2608 -0.721922 0.866233
lowerneck -11.7464 -3.88731 -1.59199
upperneck 40.1461 -7.17254 3.52477
head 16.6727 -2.77588 0.610285
rclavicle 5.14355e-015 1.15295e-014
rhumerus -41.8188 -1.18215 -79.5
rradius 23.3376
rwrist -9.62685
rhand -2.98743 14.9244
rfingers 7.12502
rthumb 22.726 -13.7573
lclavicle 5.14355e-015 1.15295e-014
lhumerus -44.908 10.9954 76.4163
lradius 35.6145
lwrist -1.75917
lhand 1.3909 17.2717
lfingers 7.12502
lthumb 26.9219 45.3742
rfemur -45.0936 4.77843 26.1344
rtibia 43.8126
rfoot -60.2123 -32.1101
rtoes 44.7137
lfemur -26.0313 6.42251 -25.3215
ltibia 48.7379
lfoot -22.2212 15.0551
ltoes -34.2449
